# xmcd
#
# Track frame offsets:
#	150
#	33010
#	60446
#	83087
#	113457
#	143059
#	202681
#	244057
#	296466
#
# Disc length: 4640 seconds
# Revision: 0
# Processed by: cddbd v1.5.2PL0 Copyright (c) Steve Scherf et al.
# Submitted via: dBpowerAMP V12.0
#
DISCID=66121e09
DTITLE=Various Artist - Erzählungen, Märchen, Parabeln CD3
DYEAR=1900
DGENRE=Unbekanntes Genre
TTITLE0=Otto Mellies - Krambambuli
TTITLE1=Otto Mellies - Zwei Jahre waren vergangen...
TTITLE2=Otto Mellies - Eines Junimorgens traf er ihn eben wieder...
TTITLE3=Otto Mellies - Nachdem es geschehen...
TTITLE4=Otto Mellies - Der ihn gerichtet, kommt langsam...
TTITLE5=Birgit Minichmayr - Der Fink
TTITLE6=Dagmar von Thomas - Hirzepinzchen
TTITLE7=Dagmar von Thomas - Die Köchin...
TTITLE8=Dagmar von Thomas - Als der Entschluss er fest gefasst...
EXTD=
EXTT0=
EXTT1=
EXTT2=
EXTT3=
EXTT4=
EXTT5=
EXTT6=
EXTT7=
EXTT8=
PLAYORDER=
